<?xml version="1.0" encoding="UTF-8" standalone="no"?>
<svg width="20px" height="24px" viewBox="0 0 20 24" version="1.1" xmlns="http://www.w3.org/2000/svg" xmlns:xlink="http://www.w3.org/1999/xlink">
    <!-- Generator: Sketch 39.1 (31720) - http://www.bohemiancoding.com/sketch -->
    <title>dollar-symbol</title>
    <desc>Created with Sketch.</desc>
    <defs></defs>
    <g id="UI-Design" stroke="none" stroke-width="1" fill="none" fill-rule="evenodd">
        <g id="dashboard" transform="translate(-18.000000, -319.000000)" fill="#00ADEE">
            <g id="dollar-symbol" transform="translate(18.000000, 319.000000)">
                <path d="M2.97167702,13.2828264 L1.29565217,13.2828264 C0.58136646,13.2828264 0,13.8574501 0,14.5645469 L0,21.944086 C0,22.6506912 0.58136646,23.2256836 1.29565217,23.2256836 L2.97167702,23.2256836 C3.68596273,23.2256836 4.26732919,22.6506912 4.26732919,21.944086 L4.26732919,14.5645469 C4.26732919,13.8574501 3.68596273,13.2828264 2.97167702,13.2828264 L2.97167702,13.2828264 Z M3.07503106,21.944086 C3.07503106,22.0002458 3.0284472,22.0458372 2.97167702,22.0458372 L1.29565217,22.0458372 C1.23888199,22.0458372 1.19279503,22.0002458 1.19279503,21.944086 L1.19279503,14.5645469 C1.19279503,14.5078955 1.23888199,14.4623041 1.29565217,14.4623041 L2.97167702,14.4623041 C3.0284472,14.4623041 3.07503106,14.5078955 3.07503106,14.5645469 L3.07503106,21.944086 Z" id="Fill-1"></path>
                <path d="M8.1468323,15.905745 L6.47031056,15.905745 C5.75602484,15.905745 5.17465839,16.4808602 5.17465839,17.1874654 L5.17465839,21.944086 C5.17465839,22.6506912 5.75602484,23.2256836 6.47031056,23.2256836 L8.1468323,23.2256836 C8.86111801,23.2256836 9.44198758,22.6506912 9.44198758,21.944086 L9.44198758,17.1874654 C9.44198758,16.4808602 8.86111801,15.905745 8.1468323,15.905745 L8.1468323,15.905745 Z M8.24968944,21.944086 C8.24968944,22.0002458 8.20360248,22.0458372 8.1468323,22.0458372 L6.47031056,22.0458372 C6.41354037,22.0458372 6.36745342,22.0002458 6.36745342,21.944086 L6.36745342,17.1874654 C6.36745342,17.1313057 6.41354037,17.0857143 6.47031056,17.0857143 L8.1468323,17.0857143 C8.20360248,17.0857143 8.24968944,17.1313057 8.24968944,17.1874654 L8.24968944,21.944086 Z" id="Fill-2"></path>
                <path d="M13.3214907,15.5735791 L11.6454658,15.5735791 C10.9311801,15.5735791 10.3498137,16.1486943 10.3498137,16.8552995 L10.3498137,21.944086 C10.3498137,22.6506912 10.9311801,23.2256836 11.6454658,23.2256836 L13.3214907,23.2256836 C14.0357764,23.2256836 14.6171429,22.6506912 14.6171429,21.944086 L14.6171429,16.8552995 C14.6171429,16.1486943 14.0357764,15.5735791 13.3214907,15.5735791 L13.3214907,15.5735791 Z M13.4243478,21.944086 C13.4243478,22.0002458 13.3782609,22.0458372 13.3214907,22.0458372 L11.6454658,22.0458372 C11.5886957,22.0458372 11.5421118,22.0002458 11.5421118,21.944086 L11.5421118,16.8552995 C11.5421118,16.7991398 11.5886957,16.7535484 11.6454658,16.7535484 L13.3214907,16.7535484 C13.3782609,16.7535484 13.4243478,16.7991398 13.4243478,16.8552995 L13.4243478,21.944086 Z" id="Fill-3"></path>
                <path d="M18.6465839,13.6149923 L16.9700621,13.6149923 C16.2557764,13.6149923 15.6745342,14.1901075 15.6745342,14.8967127 L15.6745342,21.944086 C15.6745342,22.6506912 16.2557764,23.2256836 16.9700621,23.2256836 L18.6465839,23.2256836 C19.3608696,23.2256836 19.9417391,22.6506912 19.9417391,21.944086 L19.9417391,14.8967127 C19.9417391,14.1901075 19.3608696,13.6149923 18.6465839,13.6149923 L18.6465839,13.6149923 Z M18.7495652,21.944086 C18.7495652,22.0002458 18.703354,22.0458372 18.6465839,22.0458372 L16.9700621,22.0458372 C16.9132919,22.0458372 16.867205,22.0002458 16.867205,21.944086 L16.867205,14.8967127 C16.867205,14.840553 16.9132919,14.79447 16.9700621,14.79447 L18.6465839,14.79447 C18.703354,14.79447 18.7495652,14.840553 18.7495652,14.8967127 L18.7495652,21.944086 Z" id="Fill-4"></path>
                <path d="M9.74770186,0.0997849462 C5.60658385,0.0997849462 2.23701863,3.43262673 2.23701863,7.52921659 C2.23701863,11.626298 5.60658385,14.9591398 9.74770186,14.9591398 C13.8888199,14.9591398 17.2578882,11.626298 17.2578882,7.52921659 C17.2578882,3.43262673 13.8888199,0.0997849462 9.74770186,0.0997849462 L9.74770186,0.0997849462 Z M9.74770186,13.7791705 C6.26409938,13.7791705 3.42968944,10.975361 3.42968944,7.52921659 C3.42968944,4.0830722 6.26409938,1.27975422 9.74770186,1.27975422 C13.2313043,1.27975422 16.0655901,4.0830722 16.0655901,7.52921659 C16.0655901,10.975361 13.2313043,13.7791705 9.74770186,13.7791705 L9.74770186,13.7791705 Z" id="Fill-5"></path>
                <path d="M11.0729193,5.62875576 C11.0729193,5.95428571 11.3397516,6.2187404 11.6688199,6.2187404 C11.9982609,6.2187404 12.2650932,5.95428571 12.2650932,5.62875576 C12.2650932,4.45849462 11.4450932,3.47490015 10.3440994,3.20946237 L10.3440994,2.57486943 C10.3440994,2.24933948 10.0771429,1.98488479 9.74770186,1.98488479 C9.41863354,1.98488479 9.15130435,2.24933948 9.15130435,2.57486943 L9.15130435,3.20946237 C8.05031056,3.47490015 7.23018634,4.45849462 7.23018634,5.62875576 C7.23018634,6.79864823 8.05031056,7.7822427 9.15130435,8.04817204 L9.15130435,10.5989555 C8.71987578,10.3825499 8.42248447,9.94039939 8.42248447,9.43016897 C8.42248447,9.10414747 8.15552795,8.84018433 7.82608696,8.84018433 C7.49714286,8.84018433 7.23018634,9.10414747 7.23018634,9.43016897 C7.23018634,10.5999386 8.05031056,11.583533 9.15130435,11.8489708 L9.15130435,12.4835637 C9.15130435,12.8095853 9.41863354,13.0735484 9.74770186,13.0735484 C10.0771429,13.0735484 10.3440994,12.8095853 10.3440994,12.4835637 L10.3440994,11.8489708 C11.4450932,11.583533 12.2650932,10.5999386 12.2650932,9.43016897 C12.2650932,8.25978495 11.4450932,7.27619048 10.3440994,7.01075269 L10.3440994,4.45984639 C10.7754037,4.67588326 11.0729193,5.11803379 11.0729193,5.62875576 L11.0729193,5.62875576 Z M8.42248447,5.62875576 C8.42248447,5.11803379 8.71987578,4.67588326 9.15130435,4.45947773 L9.15130435,6.79766513 C8.71987578,6.58113671 8.42248447,6.13910906 8.42248447,5.62875576 L8.42248447,5.62875576 Z M11.0729193,9.43016897 C11.0729193,9.94039939 10.7754037,10.3825499 10.3440994,10.5989555 L10.3440994,8.2612596 C10.7754037,8.47729647 11.0729193,8.919447 11.0729193,9.43016897 L11.0729193,9.43016897 Z" id="Fill-6"></path>
            </g>
        </g>
    </g>
</svg>