<?xml version="1.0" encoding="UTF-8" standalone="no"?>
<svg width="20px" height="20px" viewBox="0 0 20 20" version="1.1" xmlns="http://www.w3.org/2000/svg" xmlns:xlink="http://www.w3.org/1999/xlink">
    <!-- Generator: Sketch 39.1 (31720) - http://www.bohemiancoding.com/sketch -->
    <title>lifebuoy (1)</title>
    <desc>Created with Sketch.</desc>
    <defs></defs>
    <g id="UI-Design" stroke="none" stroke-width="1" fill="none" fill-rule="evenodd">
        <g id="mobile-dashboar-sidemenu-open" transform="translate(-78.000000, -349.000000)" fill="#00ADEE">
            <g id="side-menu" transform="translate(55.000000, -10.000000)">
                <g id="Group-7">
                    <g id="lifebuoy-(1)" transform="translate(23.000000, 359.000000)">
                        <path d="M17.0711458,2.92885417 C15.1822917,1.04026042 12.6710938,0 10,0 C7.32890625,0 4.81770833,1.04026042 2.92885417,2.92885417 C1.04005208,4.81770833 0,7.32890625 0,10 C0,12.6710938 1.04026042,15.1822917 2.92885417,17.0711458 C4.81770833,18.9597396 7.32890625,20 10,20 C12.6710938,20 15.1822917,18.9597396 17.0711458,17.0711458 C18.9599479,15.1822917 20,12.6710938 20,10 C20,7.32890625 18.9597396,4.81770833 17.0711458,2.92885417 L17.0711458,2.92885417 Z M18.7322917,7.19848958 L14.4867187,7.19848958 C14.0600521,6.51755208 13.4826562,5.93994792 12.8015104,5.51328125 L12.8015104,1.26770833 C14.1747917,1.70677083 15.433125,2.46947917 16.4819271,3.51807292 C17.5305208,4.56708333 18.2932292,5.82541667 18.7322917,7.19848958 L18.7322917,7.19848958 Z M19.1666667,10 C19.1666667,10.6699479 19.0948438,11.32875 18.9556771,11.9681771 L14.9115104,11.9681771 C15.15625,11.3594792 15.2913542,10.6952083 15.2913542,10 C15.2913542,9.30479167 15.15625,8.64052083 14.9115104,8.03182292 L18.9556771,8.03182292 C19.0948438,8.67125 19.1666667,9.33005208 19.1666667,10 L19.1666667,10 Z M10,14.4580208 C7.54192708,14.4580208 5.54197917,12.4580729 5.54197917,10 C5.54197917,7.54192708 7.54192708,5.54197917 10,5.54197917 C12.4580729,5.54197917 14.4580208,7.54192708 14.4580208,10 C14.4580208,12.4580729 12.4580729,14.4580208 10,14.4580208 L10,14.4580208 Z M0.833333333,10 C0.833333333,9.33005208 0.90515625,8.67125 1.04432292,8.03182292 L5.08848958,8.03182292 C4.84375,8.64052083 4.70864583,9.30479167 4.70864583,10 C4.70864583,10.6952083 4.84375,11.3594792 5.08848958,11.9681771 L1.04432292,11.9681771 C0.90515625,11.32875 0.833333333,10.6699479 0.833333333,10 L0.833333333,10 Z M11.9681771,1.04432292 L11.9681771,5.08848958 C11.3594792,4.84375 10.6952083,4.70864583 10,4.70864583 C9.30479167,4.70864583 8.64052083,4.84375 8.03182292,5.08848958 L8.03182292,1.04432292 C8.67125,0.90515625 9.33005208,0.833333333 10,0.833333333 C10.6699479,0.833333333 11.32875,0.90515625 11.9681771,1.04432292 L11.9681771,1.04432292 Z M3.51828125,3.51828125 C4.56708333,2.46947917 5.82541667,1.70677083 7.19848958,1.26791667 L7.19848958,5.51328125 C6.51755208,5.94015625 5.93994792,6.51755208 5.51328125,7.19848958 L1.26770833,7.19848958 C1.70677083,5.82541667 2.46947917,4.56708333 3.51828125,3.51828125 L3.51828125,3.51828125 Z M1.26770833,12.8015104 L5.51328125,12.8015104 C5.93994792,13.4824479 6.51755208,14.0600521 7.19848958,14.4867187 L7.19848958,18.7320833 C5.82541667,18.2932292 4.56708333,17.5305208 3.51828125,16.4817187 C2.46947917,15.4329167 1.70677083,14.1745833 1.26770833,12.8015104 L1.26770833,12.8015104 Z M8.03182292,18.9556771 L8.03182292,14.9115104 C8.64052083,15.15625 9.30479167,15.2913542 10,15.2913542 C10.6952083,15.2913542 11.3594792,15.15625 11.9681771,14.9115104 L11.9681771,18.9556771 C11.32875,19.0948438 10.6699479,19.1666667 10,19.1666667 C9.33005208,19.1666667 8.67125,19.0948438 8.03182292,18.9556771 L8.03182292,18.9556771 Z M16.4817187,16.4817187 C15.4329167,17.5305208 14.1745833,18.2932292 12.8015104,18.7320833 L12.8015104,14.4867187 C13.4824479,14.0598437 14.0600521,13.4824479 14.4867187,12.8015104 L18.7320833,12.8015104 C18.2932292,14.1745833 17.5305208,15.4329167 16.4817187,16.4817187 L16.4817187,16.4817187 Z" id="Fill-1"></path>
                    </g>
                </g>
            </g>
        </g>
    </g>
</svg>