<?xml version="1.0" encoding="UTF-8" standalone="no"?>
<svg width="21px" height="20px" viewBox="0 0 21 20" version="1.1" xmlns="http://www.w3.org/2000/svg" xmlns:xlink="http://www.w3.org/1999/xlink">
    <!-- Generator: Sketch 39.1 (31720) - http://www.bohemiancoding.com/sketch -->
    <title>house-outline</title>
    <desc>Created with Sketch.</desc>
    <defs>
        <polygon id="path-1" points="10.4358225 0.208695652 0 0.208695652 0 19.7104348 20.871645 19.7104348 20.871645 0.208695652 10.4358225 0.208695652"></polygon>
    </defs>
    <g id="UI-Design" stroke="none" stroke-width="1" fill="none" fill-rule="evenodd">
        <g id="mobile-dashboar-sidemenu-open" transform="translate(-72.000000, -266.000000)">
            <g id="side-menu" transform="translate(55.000000, -10.000000)">
                <g id="Group-7">
                    <g id="house-outline" transform="translate(17.000000, 276.000000)">
                        <mask id="mask-2" fill="white">
                            <use xlink:href="#path-1"></use>
                        </mask>
                        <g id="Clip-2"></g>
                        <path d="M17.4305833,9.76492754 C17.09225,9.76492754 16.8300417,10.024058 16.8300417,10.3626087 L16.8300417,18.5342029 L12.5644167,18.5342029 L12.5644167,15.1973913 C12.5644167,14.8849275 12.3013333,14.6110145 11.9845833,14.6110145 L8.9005,14.6110145 C8.561,14.6110145 8.28741667,14.8849275 8.28741667,15.1973913 L8.28741667,18.5342029 L4.032,18.5342029 L4.032,10.6344928 C4.032,10.3185507 3.77008333,10.0571014 3.43058333,10.0571014 C3.11383333,10.0571014 2.851625,10.3185507 2.851625,10.6344928 L2.851625,19.1330435 C2.851625,19.4478261 3.11383333,19.7104348 3.43058333,19.7104348 L8.9005,19.7104348 C9.21725,19.7104348 9.47916667,19.4478261 9.47916667,19.1330435 L9.47916667,15.7962319 L11.382875,15.7962319 L11.382875,19.1330435 C11.382875,19.4478261 11.6450833,19.7104348 11.9845833,19.7104348 L17.4305833,19.7104348 C17.7485,19.7104348 18.0104167,19.4478261 18.0104167,19.1330435 L18.0104167,10.3626087 C18.0104167,10.024058 17.7485,9.76492754 17.4305833,9.76492754 L17.4305833,9.76492754 Z" id="Fill-1" fill="#00ADEE" mask="url(#mask-2)"></path>
                        <path d="M20.701625,10.2301449 L15.9550417,5.49275362 L15.9550417,2.26376812 C15.9550417,1.92753623 15.6805833,1.66695652 15.34225,1.66695652 C15.0243333,1.66695652 14.762125,1.92753623 14.762125,2.26376812 L14.762125,4.30869565 L10.8465,0.394492754 C10.726625,0.273333333 10.5842917,0.208695652 10.4419583,0.208695652 C10.27775,0.208695652 10.1354167,0.275362319 10.0158333,0.394492754 L0.182291667,10.1657971 C-0.0536666667,10.4 -0.06825,10.775942 0.182291667,10.9910145 C0.401041667,11.2414493 0.778166667,11.2255072 1.014125,10.9910145 L10.4419583,1.64434783 L19.8482083,11.0794203 C19.9462083,11.1768116 20.0885417,11.2321739 20.2743333,11.2321739 C20.43825,11.2321739 20.5805833,11.1768116 20.701625,11.0794203 C20.920375,10.862029 20.936125,10.4669565 20.701625,10.2301449 L20.701625,10.2301449 Z" id="Fill-3" fill="#00ADEE" mask="url(#mask-2)"></path>
                    </g>
                </g>
            </g>
        </g>
    </g>
</svg>