<?xml version="1.0" encoding="UTF-8" standalone="no"?>
<svg width="19px" height="18px" viewBox="0 0 19 18" version="1.1" xmlns="http://www.w3.org/2000/svg" xmlns:xlink="http://www.w3.org/1999/xlink">
    <!-- Generator: Sketch 39.1 (31720) - http://www.bohemiancoding.com/sketch -->
    <title>sort-descending</title>
    <desc>Created with Sketch.</desc>
    <defs></defs>
    <g id="UI-Design" stroke="none" stroke-width="1" fill="none" fill-rule="evenodd">
        <path d="M17.74125,15.2182083 L10.1404583,15.2182083 C9.79054167,15.2182083 9.5095,15.49925 9.5095,15.8523333 C9.5095,16.2014583 9.79054167,16.4856667 10.1404583,16.4856667 L17.74125,16.4674583 C18.0911667,16.4674583 18.375375,16.2014583 18.375375,15.8523333 C18.375375,15.49925 18.0911667,15.2182083 17.74125,15.2182083 L17.74125,15.2182083 Z M8.875375,1.26825 L17.74125,1.26825 C18.0911667,1.26825 18.375375,0.98325 18.375375,0.634125 C18.375375,0.285 18.0911667,0 17.74125,0 L8.875375,0 C8.52625,0 8.24125,0.285 8.24125,0.634125 C8.24125,0.98325 8.52625,1.26825 8.875375,1.26825 L8.875375,1.26825 Z M9.94254167,11.5907917 C9.69475,11.343 9.29258333,11.343 9.04558333,11.5907917 L5.70870833,15.4311667 L5.70870833,0 L4.44045833,0 L4.44045833,15.4533333 L1.085375,11.5907917 C0.838375,11.343 0.433041667,11.343 0.18525,11.5907917 C-0.06175,11.8409583 -0.06175,12.2462917 0.18525,12.4940833 L4.58295833,17.5528333 C4.71595833,17.6858333 4.8925,17.7444167 5.06508333,17.7357083 C5.23845833,17.7444167 5.41183333,17.6858333 5.54483333,17.5528333 L9.94254167,12.4940833 C10.1927083,12.2462917 10.1927083,11.8409583 9.94254167,11.5907917 L9.94254167,11.5907917 Z M17.74125,3.80395833 L8.875375,3.80395833 C8.52625,3.80395833 8.24125,4.08816667 8.24125,4.43808333 C8.24125,4.78720833 8.52625,5.065875 8.875375,5.065875 L17.74125,5.065875 C18.0911667,5.065875 18.375375,4.78720833 18.375375,4.43808333 C18.375375,4.08816667 18.0911667,3.80395833 17.74125,3.80395833 L17.74125,3.80395833 Z M17.74125,7.60791667 L8.875375,7.60791667 C8.52625,7.60791667 8.24125,7.892125 8.24125,8.24125 C8.24125,8.59433333 8.52625,8.865875 8.875375,8.865875 L17.74125,8.875375 C18.0911667,8.875375 18.375375,8.59433333 18.375375,8.24125 C18.375375,7.892125 18.0911667,7.60791667 17.74125,7.60791667 L17.74125,7.60791667 Z M17.74125,11.4110833 L12.6761667,11.4110833 C12.32625,11.4110833 12.0420417,11.6960833 12.0420417,12.048375 C12.0420417,12.3975 12.32625,12.6666667 12.6761667,12.6666667 L17.74125,12.6666667 C18.0911667,12.6666667 18.375375,12.3975 18.375375,12.048375 C18.375375,11.6960833 18.0911667,11.4110833 17.74125,11.4110833 L17.74125,11.4110833 Z" id="sort-descending" fill="#323232"></path>
    </g>
</svg>