<?xml version="1.0" encoding="UTF-8" standalone="no"?>
<svg width="16px" height="28px" viewBox="0 0 16 28" version="1.1" xmlns="http://www.w3.org/2000/svg" xmlns:xlink="http://www.w3.org/1999/xlink">
    <!-- Generator: Sketch 39.1 (31720) - http://www.bohemiancoding.com/sketch -->
    <title>statistics</title>
    <desc>Created with Sketch.</desc>
    <defs></defs>
    <g id="UI-Design" stroke="none" stroke-width="1" fill="none" fill-rule="evenodd">
        <g id="dashboard" transform="translate(-20.000000, -460.000000)" fill="#00ADEE">
            <g id="statistics" transform="translate(20.000000, 460.000000)">
                <path d="M3.39971223,21.7141138 L1.03240288,21.7141138 C0.463079137,21.7141138 0,22.171561 0,22.7345203 L0,26.979252 C0,27.5420976 0.463079137,28 1.03240288,28 L3.39971223,28 C3.96857554,28 4.43165468,27.5420976 4.43165468,26.979252 L4.43165468,22.7345203 C4.43165468,22.171561 3.96892086,21.7141138 3.39971223,21.7141138 L3.39971223,21.7141138 Z M1.10526619,26.9072033 L3.32684892,26.9072033 L3.32684892,22.8064553 L1.10526619,22.8064553 L1.10526619,26.9072033 Z" id="Fill-1"></path>
                <path d="M9.09041727,19.2522764 L6.72299281,19.2522764 C6.15378417,19.2522764 5.69070504,19.7097236 5.69070504,20.2726829 L5.69070504,26.979252 C5.69070504,27.5420976 6.15378417,28 6.72299281,28 L9.09041727,28 C9.6596259,28 10.122705,27.5420976 10.122705,26.979252 L10.122705,20.2726829 C10.122705,19.7097236 9.6596259,19.2522764 9.09041727,19.2522764 L9.09041727,19.2522764 Z M6.79585612,26.9072033 L9.01755396,26.9072033 L9.01755396,20.3447317 L6.79585612,20.3447317 L6.79585612,26.9072033 Z" id="Fill-2"></path>
                <path d="M14.8732086,15.0110732 L12.5058993,15.0110732 C11.9365755,15.0110732 11.4734964,15.4690894 11.4734964,16.031935 L11.4734964,26.979252 C11.4734964,27.5420976 11.9365755,28 12.5058993,28 L14.8732086,28 C15.4424173,28 15.9056115,27.5420976 15.9056115,26.979252 L15.9056115,16.031935 C15.9056115,15.4690894 15.4424173,15.0110732 14.8732086,15.0110732 L14.8732086,15.0110732 Z M12.5786475,26.9072033 L14.8003453,26.9072033 L14.8003453,16.1039837 L12.5786475,16.1039837 L12.5786475,26.9072033 Z" id="Fill-3"></path>
                <path d="M8.94607194,13.8173171 C12.7837698,13.8173171 15.9056115,10.7308293 15.9056115,6.93603252 C15.9056115,3.14169106 12.7837698,0.0547479675 8.94607194,0.0547479675 C5.10883453,0.0547479675 1.98699281,3.14169106 1.98699281,6.93603252 C1.98699281,10.7308293 5.10883453,13.8173171 8.94607194,13.8173171 L8.94607194,13.8173171 Z M8.94607194,1.14754472 C12.1740432,1.14754472 14.8003453,3.74414634 14.8003453,6.93603252 C14.8003453,10.1279187 12.1740432,12.7248618 8.94607194,12.7248618 C5.71810072,12.7248618 3.09214388,10.1279187 3.09214388,6.93603252 C3.09214388,3.74414634 5.71810072,1.14754472 8.94607194,1.14754472 L8.94607194,1.14754472 Z" id="Fill-4"></path>
                <path d="M7.71856115,8.69673171 C7.71856115,8.39476423 7.47073381,8.15027642 7.16592806,8.15027642 C6.86066187,8.15027642 6.61329496,8.39476423 6.61329496,8.69673171 C6.61329496,9.78019512 7.37323741,10.6912195 8.39389928,10.9375285 L8.39389928,11.5040163 C8.39389928,11.8058699 8.64115108,12.0503577 8.94607194,12.0503577 C9.25133813,12.0503577 9.49870504,11.8058699 9.49870504,11.5040163 L9.49870504,10.9375285 C10.5193669,10.6912195 11.2791942,9.78019512 11.2791942,8.69673171 C11.2791942,7.61269919 10.5193669,6.7016748 9.49870504,6.45582114 L9.49870504,4.09266667 C9.89882014,4.29321951 10.1740432,4.70274797 10.1740432,5.17578862 C10.1740432,5.47718699 10.421295,5.7222439 10.7266763,5.7222439 C11.031482,5.7222439 11.2791942,5.47718699 11.2791942,5.17578862 C11.2791942,4.09186992 10.5193669,3.18084553 9.49870504,2.93487805 L9.49870504,2.36804878 C9.49870504,2.06665041 9.25133813,1.8215935 8.94607194,1.8215935 C8.64115108,1.8215935 8.39389928,2.06665041 8.39389928,2.36804878 L8.39389928,2.93487805 C7.37323741,3.18084553 6.61329496,4.09186992 6.61329496,5.17578862 C6.61329496,6.25936585 7.37323741,7.17027642 8.39389928,7.41658537 L8.39389928,9.77928455 C7.99366906,9.57884553 7.71856115,9.16931707 7.71856115,8.69673171 L7.71856115,8.69673171 Z M10.1740432,8.69673171 C10.1740432,9.16931707 9.89882014,9.57884553 9.49870504,9.77928455 L9.49870504,7.61360976 C9.89882014,7.8141626 10.1740432,8.22357724 10.1740432,8.69673171 L10.1740432,8.69673171 Z M7.71856115,5.17578862 C7.71856115,4.70274797 7.99366906,4.29321951 8.39389928,4.09266667 L8.39389928,6.25845528 C7.99366906,6.05790244 7.71856115,5.64837398 7.71856115,5.17578862 L7.71856115,5.17578862 Z" id="Fill-5"></path>
                <path d="M2.40920863,19.9396423 C2.49864748,19.9396423 2.58946763,19.9182439 2.67361151,19.8729431 L7.63890647,17.1923415 L7.39522302,18.0131057 C7.30889209,18.3025528 7.47660432,18.6062276 7.76932374,18.6911382 C7.82146763,18.7062764 7.87407194,18.7133333 7.92541007,18.7133333 C8.16414388,18.7133333 8.38446043,18.5591057 8.45548201,18.3207642 L9.07510791,16.2346504 C9.11597122,16.0959024 9.09985612,15.9461138 9.02964029,15.8189756 C8.95953957,15.6918374 8.84086331,15.5974797 8.70054676,15.5566179 L6.59084892,14.9439187 C6.29766906,14.8585528 5.99056115,15.0248455 5.90469065,15.3142927 C5.81882014,15.6037398 5.98653237,15.9074146 6.2792518,15.9923252 L7.10929496,16.2332846 L2.14388489,18.9138862 C1.87591367,19.058439 1.77738129,19.3901138 1.92356835,19.6550894 C2.02428777,19.8369756 2.21352518,19.9396423 2.40920863,19.9396423 L2.40920863,19.9396423 Z" id="Fill-6"></path>
            </g>
        </g>
    </g>
</svg>