<?xml version="1.0" encoding="UTF-8" standalone="no"?>
<svg width="70px" height="28px" viewBox="0 0 70 28" version="1.1" xmlns="http://www.w3.org/2000/svg" xmlns:xlink="http://www.w3.org/1999/xlink">
    <!-- Generator: Sketch 3.8.1 (29687) - http://www.bohemiancoding.com/sketch -->
    <title>Page 1</title>
    <desc>Created with Sketch.</desc>
    <defs></defs>
    <g id="UI-Design" stroke="none" stroke-width="1" fill="none" fill-rule="evenodd">
        <g id="dashboard" transform="translate(-153.000000, -42.000000)" fill="#FEFEFE">
            <g id="Page-1" transform="translate(153.000000, 42.000000)">
                <g id="Group-33" transform="translate(0.000000, 0.194475)">
                    <path d="M10.2022657,16.8518403 L12.6679301,9.55462924 C12.8521259,9.08897912 13.0482797,8.53761752 13.257021,7.90033487 C13.4653427,7.26305223 13.668,6.57086395 13.8639441,5.82314133 C14.0724755,6.5584997 14.2841538,7.24188632 14.4991888,7.87288205 C14.7133846,8.50408735 14.9005175,9.05209594 15.0601678,9.51795563 L17.5258322,16.8518403 L10.2022657,16.8518403 L10.2022657,16.8518403 Z M17.0475105,0.309106182 L10.6805874,0.309106182 L0.302685315,27.0898562 L5.1607972,27.0898562 C5.67625175,27.0898562 6.11135664,26.9519634 6.46695105,26.6763874 C6.82254545,26.4003922 7.0614965,26.0914956 7.18464336,25.748021 L8.7673007,21.0795746 L18.9614266,21.0795746 L20.5438741,25.748021 C20.6783497,26.1403239 20.9210769,26.4620039 21.2705874,26.7132706 C21.4184895,26.8193097 21.5875804,26.8981056 21.7692587,26.9595077 L24.5718462,19.726423 L17.0475105,0.309106182 L17.0475105,0.309106182 Z" id="Fill-2"></path>
                    <path d="M66.6303147,20.2431228 C66.4832517,20.1877981 66.3361888,20.1601357 66.1889161,20.1601357 C66.0051399,20.1601357 65.8268182,20.2003719 65.6554196,20.2797964 C65.4831818,20.3596401 65.3241608,20.4606498 65.1764685,20.5830348 C64.8089161,20.9019905 64.4436713,21.1683457 64.0822028,21.3825197 C63.7203147,21.5973223 63.3395455,21.7718887 62.9409441,21.9064284 C62.5423427,22.0413873 62.1097552,22.1363196 61.6436014,22.1916444 C61.1776573,22.24655 60.6624126,22.2742124 60.0978671,22.2742124 C59.1166783,22.2742124 58.1965385,22.0841383 57.3382867,21.7044092 C56.4796154,21.3246801 55.7285664,20.7701751 55.0843007,20.0406845 C54.440035,19.3118226 53.9312937,18.4140525 53.5572378,17.3480029 C53.1821329,16.2821629 52.9956294,15.0627128 52.9956294,13.6902813 C52.9956294,12.3790424 53.1821329,11.1968947 53.5572378,10.1427902 C53.9312937,9.08889529 54.4524126,8.19175389 55.1203846,7.45010862 C55.7894056,6.70888248 56.5897552,6.13886972 57.5222727,5.74048948 C58.453951,5.34252837 59.4846503,5.14323347 60.6135315,5.14323347 C61.2634615,5.14323347 61.8307343,5.1924809 62.3155594,5.29013749 C62.8001748,5.38842278 63.2233217,5.50808355 63.585,5.64870066 C63.9468881,5.78952735 64.2596853,5.94292784 64.5236014,6.10827345 C64.7875175,6.27361906 65.0296154,6.42680999 65.2503147,6.56763667 C65.4718531,6.70888248 65.6797552,6.82833368 65.8761189,6.92619984 C66.0720629,7.02448513 66.281014,7.07310386 66.5015035,7.07310386 C66.8327622,7.07310386 67.091014,7.00290009 67.2747902,6.86186384 C67.4585664,6.72124672 67.6182168,6.56491234 67.7529021,6.3928607 L69.8505944,3.58093748 C69.3470979,3.05430438 68.7705944,2.57335611 68.1208741,2.13767357 C67.4705245,1.70303884 66.7595455,1.3293871 65.9862587,1.01671834 C65.2133916,0.704468705 64.3824126,0.459279395 63.4933217,0.281569536 C62.6038112,0.103859677 61.655979,0.015214311 60.6502448,0.015214311 C58.5768881,0.015214311 56.6818531,0.351982876 54.9649301,1.0261487 C53.246958,1.69989539 51.7717133,2.64335033 50.538986,3.8565135 C49.3062587,5.06967668 48.3464685,6.51252147 47.6591958,8.18525743 C47.167028,9.38375116 46.8544406,10.6671181 46.7151399,12.0317957 L51.7018531,24.9015102 C52.4625524,25.4675412 53.2991958,25.9505851 54.2193357,26.3456123 C55.831993,27.0378006 57.6573776,27.3839995 59.6936014,27.3839995 C61.9136014,27.3839995 63.8365385,27.0254364 65.4622028,26.3087291 C67.0872378,25.5916028 68.4397552,24.5289062 69.5193357,23.1195916 L67.0536713,20.5281292 C66.9185664,20.3931703 66.7777972,20.298238 66.6303147,20.2431228" id="Fill-4"></path>
                    <path d="M33.2912937,17.0605865 L35.7567483,9.76358502 C35.9409441,9.29814446 36.1370979,8.74657329 36.3456294,8.10908109 C36.553951,7.47221757 36.7563986,6.77961016 36.952972,6.03230668 C37.1615035,6.76745548 37.3731818,7.45063253 37.5877972,8.08162827 C37.801993,8.71283357 37.9891259,9.26126128 38.1491958,9.72691141 L40.6148601,17.0605865 L33.2912937,17.0605865 Z M49.5850699,24.9016149 L44.5983566,12.0319005 L40.1363287,0.51806196 L33.7694056,0.51806196 L23.3910839,27.298812 L28.2494056,27.298812 C28.7646503,27.298812 29.1997552,27.1607096 29.5557692,26.8851336 C29.9115734,26.609348 30.1505245,26.3002418 30.2732517,25.9569768 L31.8559091,21.2883209 L42.0498252,21.2883209 L43.6324825,25.9569768 C43.766958,26.3492797 44.0096853,26.6709597 44.3591958,26.9220168 C44.7089161,27.1732834 45.1532517,27.298812 45.6928322,27.298812 L50.5144406,27.298812 L49.5850699,24.9016149 Z" id="Fill-6"></path>
                </g>
            </g>
        </g>
    </g>
</svg>