<?xml version="1.0" encoding="UTF-8" standalone="no"?>
<svg width="140px" height="56px" viewBox="0 0 140 56" version="1.1" xmlns="http://www.w3.org/2000/svg" xmlns:xlink="http://www.w3.org/1999/xlink">
    <!-- Generator: Sketch 39 (31667) - http://www.bohemiancoding.com/sketch -->
    <title>Page 1</title>
    <desc>Created with Sketch.</desc>
    <defs></defs>
    <g id="UI-Design" stroke="none" stroke-width="1" fill="none" fill-rule="evenodd">
        <g id="mobile-splash-page" transform="translate(-118.000000, -306.000000)" fill="#FEFEFE">
            <g id="Page-1" transform="translate(118.000000, 306.000000)">
                <g id="Group-33" transform="translate(0.000000, 0.388950)">
                    <path d="M20.4045315,33.7036807 L25.3358601,19.1092585 C25.7042517,18.1779582 26.0965594,17.075235 26.514042,15.8006697 C26.9306853,14.5261045 27.336,13.1417279 27.7278881,11.6462827 C28.144951,13.1169994 28.5683077,14.4837726 28.9983776,15.7457641 C29.4267692,17.0081747 29.801035,18.1041919 30.1203357,19.0359113 L35.0516643,33.7036807 L20.4045315,33.7036807 L20.4045315,33.7036807 Z M34.095021,0.618212363 L21.3611748,0.618212363 L0.605370629,54.1797124 L10.3215944,54.1797124 C11.3525035,54.1797124 12.2227133,53.9039268 12.9339021,53.3527748 C13.6450909,52.8007845 14.122993,52.1829912 14.3692867,51.496042 L17.5346014,42.1591493 L37.9228531,42.1591493 L41.0877483,51.496042 C41.3566993,52.2806478 41.8421538,52.9240078 42.5411748,53.4265411 C42.836979,53.6386194 43.1751608,53.7962111 43.5385175,53.9190154 L49.1436923,39.4528461 L34.095021,0.618212363 L34.095021,0.618212363 Z" id="Fill-2"></path>
                    <path d="M133.260629,40.4862457 C132.966503,40.3755961 132.672378,40.3202714 132.377832,40.3202714 C132.01028,40.3202714 131.653636,40.4007437 131.310839,40.5595929 C130.966364,40.7192803 130.648322,40.9212995 130.352937,41.1660697 C129.617832,41.803981 128.887343,42.3366915 128.164406,42.7650393 C127.440629,43.1946445 126.679091,43.5437773 125.881888,43.8128569 C125.084685,44.0827747 124.21951,44.2726392 123.287203,44.3832887 C122.355315,44.4931 121.324825,44.5484248 120.195734,44.5484248 C118.233357,44.5484248 116.393077,44.1682766 114.676573,43.4088184 C112.959231,42.6493602 111.457133,41.5403501 110.168601,40.081369 C108.88007,38.6236452 107.862587,36.828105 107.114476,34.6960058 C106.364266,32.5643257 105.991259,30.1254256 105.991259,27.3805627 C105.991259,24.7580849 106.364266,22.3937893 107.114476,20.2855804 C107.862587,18.1777906 108.904825,16.3835078 110.240769,14.9002172 C111.578811,13.417765 113.17951,12.2777394 115.044545,11.480979 C116.907902,10.6850567 118.969301,10.2864669 121.227063,10.2864669 C122.526923,10.2864669 123.661469,10.3849618 124.631119,10.580275 C125.60035,10.7768456 126.446643,11.0161671 127.17,11.2974013 C127.893776,11.5790547 128.519371,11.8858557 129.047203,12.2165469 C129.575035,12.5472381 130.059231,12.85362 130.500629,13.1352733 C130.943706,13.417765 131.35951,13.6566674 131.752238,13.8523997 C132.144126,14.0489703 132.562028,14.1462077 133.003007,14.1462077 C133.665524,14.1462077 134.182028,14.0058002 134.54958,13.7237277 C134.917133,13.4424934 135.236434,13.1298247 135.505804,12.7857214 L139.701189,7.16187497 C138.694196,6.10860875 137.541189,5.14671223 136.241748,4.27534714 C134.941049,3.40607769 133.519091,2.6587742 131.972517,2.03343668 C130.426783,1.40893741 128.764825,0.91855879 126.986643,0.563139072 C125.207622,0.207719354 123.311958,0.0304286221 121.30049,0.0304286221 C117.153776,0.0304286221 113.363706,0.703965753 109.92986,2.05229739 C106.493916,3.39979078 103.543427,5.28670065 101.077972,7.71302701 C98.6125175,10.1393534 96.6929371,13.0250429 95.3183916,16.3705149 C94.3340559,18.7675023 93.7088811,21.3342362 93.4302797,24.0635914 L103.403706,49.8030203 C104.925105,50.9350824 106.598392,51.9011702 108.438671,52.6912247 C111.663986,54.0756012 115.314755,54.7679991 119.387203,54.7679991 C123.827203,54.7679991 127.673077,54.0508727 130.924406,52.6174583 C134.174476,51.1832056 136.87951,49.0578125 139.038671,46.2391832 L134.107343,41.0562584 C133.837133,40.7863406 133.555594,40.5964761 133.260629,40.4862457" id="Fill-4"></path>
                    <path d="M66.5825874,34.1211731 L71.5134965,19.52717 C71.8818881,18.5962889 72.2741958,17.4931466 72.6912587,16.2181622 C73.1079021,14.9444351 73.5127972,13.5592203 73.9059441,12.0646134 C74.323007,13.534911 74.7463636,14.9012651 75.1755944,16.1632565 C75.603986,17.4256671 75.9782517,18.5225226 76.2983916,19.4538228 L81.2297203,34.1211731 L66.5825874,34.1211731 Z M99.1701399,49.8032299 L89.1967133,24.063801 L80.2726573,1.03612392 L67.5388112,1.03612392 L46.7821678,54.5976239 L56.4988112,54.5976239 C57.5293007,54.5976239 58.3995105,54.3214192 59.1115385,53.7702672 C59.8231469,53.218696 60.301049,52.6004837 60.5465035,51.9139536 L63.7118182,42.5766417 L84.0996503,42.5766417 L87.264965,51.9139536 C87.5339161,52.6985594 88.0193706,53.3419194 88.7183916,53.8440335 C89.4178322,54.3465668 90.3065035,54.5976239 91.3856643,54.5976239 L101.028881,54.5976239 L99.1701399,49.8032299 Z" id="Fill-6"></path>
                </g>
            </g>
        </g>
    </g>
</svg>