<?xml version="1.0" encoding="UTF-8" standalone="no"?>
<svg width="63px" height="25px" viewBox="0 0 63 25" version="1.1" xmlns="http://www.w3.org/2000/svg" xmlns:xlink="http://www.w3.org/1999/xlink">
    <!-- Generator: Sketch 3.8.1 (29687) - http://www.bohemiancoding.com/sketch -->
    <title>Page 1</title>
    <desc>Created with Sketch.</desc>
    <defs></defs>
    <g id="UI-Design" stroke="none" stroke-width="1" fill="none" fill-rule="evenodd">
        <g id="dashboard" transform="translate(-18.000000, -609.000000)" fill="#FEFEFE">
            <g id="Group-3" transform="translate(0.000000, 580.000000)">
                <g id="Page-1" transform="translate(18.000000, 29.000000)">
                    <g id="Group-33" transform="translate(0.000000, 0.174357)">
                        <path d="M9.18203916,15.1085465 L11.4011371,8.56621932 C11.5669133,8.1487399 11.7434517,7.6544157 11.9313189,7.08305885 C12.1188084,6.511702 12.3012,5.8911194 12.4775497,5.2207474 C12.665228,5.88003421 12.8557385,6.49272566 13.0492699,7.05844598 C13.2420462,7.62435418 13.4104657,8.11567222 13.554151,8.53333953 L15.773249,15.1085465 L9.18203916,15.1085465 L9.18203916,15.1085465 Z M15.3427594,0.27712968 L9.61252867,0.27712968 L0.272416783,24.2874573 L4.64471748,24.2874573 C5.10862657,24.2874573 5.50022098,24.1638293 5.82025594,23.9167611 C6.14029091,23.6693172 6.35534685,23.3923754 6.46617902,23.0844326 L7.89057063,18.898929 L17.0652839,18.898929 L18.4894867,23.0844326 C18.6105147,23.4361525 18.8289692,23.7245552 19.1435287,23.9498288 C19.2766406,24.0448983 19.4288224,24.1155429 19.5923329,24.1705931 L22.1146615,17.6857586 L15.3427594,0.27712968 L15.3427594,0.27712968 Z" id="Fill-2"></path>
                        <path d="M59.9672832,18.1490067 C59.8349266,18.0994052 59.7025699,18.0746044 59.5700245,18.0746044 C59.4046259,18.0746044 59.2441364,18.1106782 59.0898776,18.1818865 C58.9348636,18.2534705 58.7917448,18.3440308 58.6588217,18.4537554 C58.3280245,18.7397156 57.9993042,18.9785169 57.6739825,19.1705349 C57.3482832,19.3631165 57.0055909,19.5196243 56.6468497,19.6402462 C56.2881084,19.7612438 55.8987797,19.8463555 55.4792413,19.895957 C55.0598916,19.9451828 54.5961713,19.9699835 54.0880804,19.9699835 C53.2050105,19.9699835 52.3768846,19.7995723 51.604458,19.4591255 C50.8316538,19.1186787 50.1557098,18.6215363 49.5758706,17.9675102 C48.9960315,17.3140478 48.5381643,16.5091505 48.201514,15.5533819 C47.8639196,14.5978012 47.6960664,13.5045011 47.6960664,12.2740453 C47.6960664,11.0984518 47.8639196,10.0385952 48.201514,9.09353604 C48.5381643,8.14866475 49.0071713,7.34433108 49.6083462,6.67940773 C50.210465,6.01486015 50.9307797,5.50381423 51.7700455,5.14664574 C52.6085559,4.78985302 53.5361853,4.61117484 54.5521783,4.61117484 C55.1371154,4.61117484 55.6476608,4.6553277 56.0840035,4.74288189 C56.5201573,4.83099974 56.9009895,4.9382818 57.2265,5.06435232 C57.5521993,5.19061072 57.8337168,5.3281422 58.0712413,5.47638309 C58.3087657,5.62462399 58.5266538,5.76196758 58.7252832,5.88822598 C58.9246678,6.01486015 59.1117797,6.12195433 59.288507,6.20969641 C59.4648566,6.29781425 59.6529126,6.34140346 59.8513531,6.34140346 C60.149486,6.34140346 60.3819126,6.27846215 60.5473112,6.15201586 C60.7127098,6.02594534 60.8563951,5.88578348 60.9776119,5.73153028 L62.865535,3.21049567 C62.4123881,2.73834185 61.893535,2.30714686 61.3087867,1.91653492 C60.723472,1.52686241 60.0835909,1.1918643 59.3876329,0.91154058 C58.6920524,0.631592632 57.9441713,0.411767733 57.1439895,0.252441653 C56.3434301,0.0931155725 55.4903811,0.0136404168 54.5852203,0.0136404168 C52.7191993,0.0136404168 51.0136678,0.315570855 49.4684371,0.919995384 C47.9222622,1.52404414 46.594542,2.36990029 45.4850874,3.45756383 C44.3756329,4.54522737 43.5118217,5.83881235 42.8932762,7.33850666 C42.4503252,8.41301828 42.1689965,9.56362313 42.0436259,10.7871272 L46.5316678,22.3254919 C47.2162972,22.832968 47.9692762,23.2660418 48.7974021,23.6202042 C50.2487937,24.2407868 51.8916399,24.551172 53.7242413,24.551172 C55.7222413,24.551172 57.4528846,24.2297016 58.9159825,23.5871365 C60.378514,22.9441956 61.5957797,21.9914332 62.5674021,20.7279097 L60.3483042,18.4045296 C60.2267098,18.283532 60.1000175,18.1984203 59.9672832,18.1490067" id="Fill-4"></path>
                        <path d="M29.9621643,15.2956983 L32.1810734,8.75355899 C32.3468497,8.33626745 32.5233881,7.84175537 32.7110664,7.27021063 C32.8985559,6.69922955 33.0807587,6.07827118 33.2576748,5.40827495 C33.4453531,6.06737388 33.6358636,6.67987744 33.8290175,7.24559776 C34.0217937,7.81150596 34.1902133,8.30319977 34.3342762,8.72067919 L36.5533741,15.2956983 L29.9621643,15.2956983 Z M44.6265629,22.3255858 L40.138521,10.7872211 L36.1226958,0.464469344 L30.392465,0.464469344 L21.0519755,24.4747969 L25.424465,24.4747969 C25.8881853,24.4747969 26.2797797,24.350981 26.6001923,24.1039129 C26.9204161,23.8566568 27.135472,23.5795272 27.2459266,23.2717723 L28.6703182,19.0860808 L37.8448427,19.0860808 L39.2692343,23.2717723 C39.3902622,23.6234921 39.6087168,23.9118949 39.9232762,24.1369806 C40.2380245,24.3622541 40.6379266,24.4747969 41.123549,24.4747969 L45.4629965,24.4747969 L44.6265629,22.3255858 Z" id="Fill-6"></path>
                    </g>
                </g>
            </g>
        </g>
    </g>
</svg>