<?xml version="1.0" encoding="UTF-8" standalone="no"?>
<svg width="13px" height="13px" viewBox="0 0 13 13" version="1.1" xmlns="http://www.w3.org/2000/svg" xmlns:xlink="http://www.w3.org/1999/xlink">
    <!-- Generator: Sketch 39.1 (31720) - http://www.bohemiancoding.com/sketch -->
    <title>attention-sign-outline</title>
    <desc>Created with Sketch.</desc>
    <defs></defs>
    <g id="UI-Design" stroke="none" stroke-width="1" fill="none" fill-rule="evenodd">
        <g id="mobile-make-a-payment-ERROR-MESSAGES" transform="translate(-13.000000, -388.000000)" fill="#FC2E2E">
            <g id="attention-sign-outline" transform="translate(13.000000, 388.000000)">
                <g id="Capa_1">
                    <g id="Group">
                        <path d="M6.49387033,0 C2.90763261,0 0,2.90763261 0,6.49387033 C0,10.0801081 2.90763261,12.9877407 6.49387033,12.9877407 C10.0801081,12.9877407 12.9877407,10.0801081 12.9877407,6.49387033 C12.9877407,2.90763261 10.0801081,0 6.49387033,0 L6.49387033,0 Z M6.49387033,12.1759941 C3.36058939,12.1759941 0.811746562,9.62633399 0.811746562,6.49387033 C0.811746562,3.36058939 3.36058939,0.811746562 6.49387033,0.811746562 C9.62635953,0.811746562 12.1759941,3.36058939 12.1759941,6.49387033 C12.1759941,9.62633399 9.62633399,12.1759941 6.49387033,12.1759941 L6.49387033,12.1759941 Z" id="Shape"></path>
                        <path d="M6.49387033,2.43518861 C6.04579175,2.43518861 5.68214931,2.79885658 5.68214931,3.24690963 L5.68214931,7.30556582 C5.68214931,7.7536444 6.04581729,8.11728684 6.49387033,8.11728684 C6.94192338,8.11728684 7.30559136,7.75361886 7.30559136,7.30556582 L7.30559136,3.24693517 C7.30559136,2.79885658 6.94194892,2.43518861 6.49387033,2.43518861 L6.49387033,2.43518861 Z" id="Shape"></path>
                        <ellipse id="Oval" cx="6.49387033" cy="9.7278055" rx="0.811721022" ry="0.811721022"></ellipse>
                    </g>
                </g>
            </g>
        </g>
    </g>
</svg>