<?xml version="1.0" encoding="UTF-8" standalone="no"?>
<svg width="19px" height="20px" viewBox="0 0 19 20" version="1.1" xmlns="http://www.w3.org/2000/svg" xmlns:xlink="http://www.w3.org/1999/xlink">
    <!-- Generator: Sketch 39.1 (31720) - http://www.bohemiancoding.com/sketch -->
    <title>user</title>
    <desc>Created with Sketch.</desc>
    <defs></defs>
    <g id="UI-Design" stroke="none" stroke-width="1" fill="none" fill-rule="evenodd">
        <g id="mobile-dashboar-sidemenu-open" transform="translate(-90.000000, -471.000000)" fill="#00ADEE">
            <g id="side-menu" transform="translate(55.000000, -10.000000)">
                <g id="Group-7">
                    <g id="user" transform="translate(35.000000, 481.000000)">
                        <path d="M4.85862705,7.74697674 C4.90604918,7.76666667 4.95440574,7.78418605 5.00338525,7.80116279 L5.10344672,7.83751938 C5.1430041,7.85263566 5.18287295,7.86751938 5.22570082,7.88054264 C5.61263115,8.0003876 6.01747131,8.06217054 6.42877459,8.06310078 L6.42963115,8.06310078 C6.56808197,8.06310078 6.70466393,8.05550388 6.8342377,8.04217054 C6.88345082,8.0379845 6.9327418,8.03007752 6.98203279,8.02162791 L7.06021311,8.00953488 C7.12017213,8.00162791 7.18067623,7.99317829 7.24118033,7.98046512 C7.2807377,7.97224806 7.3187377,7.96224806 7.35704918,7.95224806 L7.45197131,7.92837209 C7.50975,7.91472868 7.56791803,7.90077519 7.62935656,7.88139535 C7.65855738,7.87170543 7.6877582,7.86085271 7.71633607,7.85023256 L7.80090164,7.81992248 C7.86568852,7.79751938 7.93078689,7.7748062 7.99370492,7.74875969 C8.0204918,7.7375969 8.04665574,7.72488372 8.09353279,7.70155039 C8.17864344,7.66372093 8.26414344,7.62465116 8.35813115,7.57434109 L8.4052418,7.54527132 C8.49922951,7.49232558 8.59236066,7.43782946 8.68144262,7.37937984 L8.71765164,7.35364341 C9.81022951,6.60356589 10.4626926,5.37085271 10.464873,4.04449612 C10.464873,1.82821705 8.65379918,0.0255813953 6.42815164,0.0255813953 C4.30435656,0.0255813953 2.53618852,1.67953488 2.40388934,3.79162791 L2.40022951,3.84465116 C2.39540164,3.91093023 2.39143033,3.97666667 2.39143033,4.04418605 C2.3917418,5.66302326 3.35965164,7.1155814 4.85862705,7.74697674 L4.85862705,7.74697674 Z M3.19931967,3.9003876 L3.20329098,3.84162791 C3.3097377,2.14891473 4.72625,0.823178295 6.42877459,0.823178295 C8.21306148,0.823178295 9.66422541,2.26852713 9.66422541,4.04844961 C9.6627459,5.11612403 9.13105738,6.11209302 8.26079508,6.70046512 L8.22279508,6.72589147 C8.15434836,6.77007752 8.0834877,6.81131783 8.0107582,6.85186047 L7.96972131,6.87790698 C7.90431148,6.91209302 7.8364877,6.94302326 7.76259016,6.97573643 L7.68378689,7.01418605 C7.63659836,7.03356589 7.58738525,7.05046512 7.53809426,7.06744186 L7.38539344,7.12255814 C7.34677049,7.1344186 7.30659016,7.14379845 7.26703279,7.15317829 L7.14929508,7.18286822 C7.12468852,7.18945736 7.09977049,7.19612403 7.07539754,7.20100775 C7.03498361,7.20945736 6.99355738,7.21465116 6.95283197,7.21976744 L6.84397131,7.23643411 C6.81656148,7.24124031 6.78977459,7.24643411 6.75691393,7.24945736 C6.64836475,7.26007752 6.54004918,7.26612403 6.4290082,7.26612403 C6.09783197,7.2651938 5.77296311,7.21612403 5.46390164,7.12015504 C5.43742623,7.11170543 5.41219672,7.10224806 5.38665574,7.09232558 L5.26954098,7.04992248 C5.23488934,7.03775194 5.19984836,7.02534884 5.16792213,7.0120155 C3.96702869,6.50635659 3.19137705,5.34178295 3.19137705,4.0448062 C3.19262295,3.99604651 3.19597131,3.94790698 3.19931967,3.9003876 L3.19931967,3.9003876 Z M13.3873689,8.84100775 C12.2795287,8.84100775 11.2490123,9.16682171 10.3784385,9.72100775 C9.24871721,8.83674419 7.85743443,8.34713178 6.42020902,8.34713178 C2.88021311,8.34713178 0,11.2141085 0,14.7385271 C0,14.7966667 0.00365983607,14.8539535 0.00731967213,14.9114729 L0.0267868852,15.3777519 L7.87113934,15.3777519 C8.32955328,17.9989147 10.6248156,19.999845 13.3867459,19.999845 C16.4772049,19.999845 18.9915123,17.4968217 18.9915123,14.4206202 C18.9915123,11.344031 16.47775,8.84100775 13.3873689,8.84100775 L13.3873689,8.84100775 Z M7.78532787,14.5807752 L0.802983607,14.5807752 C0.88754918,11.5687597 3.37514754,9.1444186 6.42052049,9.1444186 C7.60560656,9.1444186 8.75868852,9.52054264 9.71507377,10.2124806 C9.69677459,10.2287597 9.68065574,10.2472868 9.66243443,10.2636434 C9.54321721,10.3699225 9.42820492,10.480155 9.31809836,10.596124 C9.29045492,10.6251938 9.26366803,10.6545736 9.23688115,10.6848062 C9.13136885,10.8007752 9.0309959,10.9206977 8.9357623,11.0445736 C8.9132582,11.0739535 8.89137705,11.1030233 8.86972951,11.1327132 C8.77363934,11.2634884 8.68362295,11.3982171 8.5987459,11.5372093 C8.58348361,11.5624031 8.56736475,11.5875194 8.5524918,11.6129457 C8.46613525,11.7597674 8.38670902,11.9112403 8.31405738,12.0662791 C8.30432377,12.085969 8.29396721,12.1058915 8.28485656,12.1255814 C8.2115041,12.2866667 8.14609426,12.4510853 8.0880041,12.6197674 C8.08255328,12.6364341 8.07523361,12.6524806 8.07009426,12.6694574 C8.01410656,12.8378295 7.96637295,13.0092248 7.92681557,13.1836434 C7.92222131,13.2024031 7.91677049,13.2208527 7.9124877,13.2396124 C7.87573361,13.4082946 7.8480123,13.58 7.82706557,13.7537984 C7.8242623,13.7783721 7.81881148,13.801938 7.81577459,13.8268217 C7.79506148,14.022093 7.78322541,14.2195349 7.78322541,14.4203101 C7.78322541,14.4735659 7.78384836,14.5268992 7.78532787,14.5807752 L7.78532787,14.5807752 Z M13.3873689,19.2025581 C10.9129303,19.2025581 8.87128689,17.3303101 8.61268443,14.934186 C8.59321721,14.755814 8.58379508,14.5871318 8.58379508,14.42 C8.58379508,14.2382946 8.59633197,14.0578295 8.61696721,13.8791473 C8.62156148,13.8389147 8.6297377,13.8004651 8.63495492,13.7604651 C8.65527869,13.6181395 8.67996311,13.4767442 8.71282377,13.3371318 C8.721,13.3004651 8.73135656,13.2648062 8.74077869,13.2287597 C8.77877869,13.0831008 8.82293033,12.9386822 8.87432377,12.7981395 C8.8837459,12.7730233 8.89254508,12.747907 8.90196721,12.7230233 C8.96465164,12.5607752 9.03434426,12.4014729 9.11369262,12.2473643 C9.11493852,12.2442636 9.11610656,12.2418605 9.11735246,12.2391473 C9.28920902,11.9075969 9.49968852,11.5956589 9.7457541,11.310155 C9.7482459,11.3071318 9.75128279,11.3041085 9.7540082,11.3013178 C9.86808607,11.1699225 9.99065164,11.0445736 10.1196025,10.9255814 C10.1387582,10.9079845 10.1585369,10.8904651 10.1776926,10.8731783 C10.3005697,10.7632558 10.4289754,10.6584496 10.564,10.5603876 C10.5944467,10.5379845 10.6233361,10.5146512 10.6549508,10.4931783 L10.7170123,10.4483721 C11.4810615,9.93782946 12.3999918,9.63891473 13.3876803,9.63891473 C16.0363893,9.63891473 18.1917992,11.784031 18.1917992,14.4209302 C18.1917992,17.0577519 16.0363893,19.2025581 13.3873689,19.2025581 L13.3873689,19.2025581 Z M13.9835328,13.8276744 L16.3312008,13.8276744 L16.3312008,15.0128682 L13.9835328,15.0128682 L13.9835328,17.3503101 L12.7926844,17.3503101 L12.7926844,15.0128682 L10.4450943,15.0128682 L10.4450943,13.8276744 L12.7926844,13.8276744 L12.7926844,11.4906202 L13.9835328,11.4906202 L13.9835328,13.8276744 Z" id="Fill-1"></path>
                    </g>
                </g>
            </g>
        </g>
    </g>
</svg>