<?xml version="1.0" encoding="UTF-8" standalone="no"?>
<svg width="24px" height="24px" viewBox="0 0 24 24" version="1.1" xmlns="http://www.w3.org/2000/svg" xmlns:xlink="http://www.w3.org/1999/xlink">
    <!-- Generator: Sketch 39.1 (31720) - http://www.bohemiancoding.com/sketch -->
    <title>Group 38</title>
    <desc>Created with Sketch.</desc>
    <defs></defs>
    <g id="UI-Design" stroke="none" stroke-width="1" fill="none" fill-rule="evenodd">
        <g id="dashboard" transform="translate(-15.000000, -388.000000)">
            <g id="Group-38" transform="translate(16.000000, 388.000000)">
                <g id="finances" transform="translate(7.599465, 6.014815)" fill="#00ADEE">
                    <path d="M7.66882549,0.723156532 C3.96381472,0.723156532 0.0279119652,1.81867516 0.0279119652,3.85010438 L0.0279119652,14.0289216 C0.0279119652,16.0603508 3.96381472,17.1558694 7.66882549,17.1558694 C11.4649849,17.1558694 15.3096719,16.081623 15.3096719,14.0289216 L15.3096719,3.85010438 C15.3096719,1.79740295 11.4649849,0.723156532 7.66882549,0.723156532 L7.66882549,0.723156532 Z M14.1875637,14.0289216 C14.1875637,14.8531531 11.647752,16.0497147 7.66352303,16.0497147 C3.67909269,16.0497147 1.13928096,14.8531531 1.13928096,14.0289216 L1.13928096,12.321827 C2.57295904,13.2631886 5.1719704,13.763019 7.66352303,13.763019 C10.2085701,13.763019 12.7699273,13.2790098 14.1875637,12.3483508 L14.1875637,14.0289216 Z M14.1875637,10.6360711 C14.1875637,11.4602362 11.647752,12.6567978 7.66352303,12.6567978 C3.67909269,12.6567978 1.13928096,11.4602362 1.13928096,10.6360711 L1.13928096,8.92897659 C2.57295904,9.87033819 5.1719704,10.3701686 7.66352303,10.3701686 C10.2085701,10.3701686 12.7699273,9.8861594 14.1875637,8.95550037 L14.1875637,10.6360711 Z M14.1875637,7.24295481 C14.1875637,8.06738576 11.647752,9.26394736 7.66352303,9.26394736 C3.67909269,9.26394736 1.13928096,8.06738576 1.13928096,7.24295481 L1.13928096,5.53586026 C2.57295904,6.47722186 5.1719704,6.97705223 7.66352303,6.97705223 C10.2085701,6.97705223 12.7699273,6.49330897 14.1875637,5.56264994 L14.1875637,7.24295481 Z M7.66882549,5.87109693 C3.68459651,5.87109693 1.14478478,4.67453533 1.14478478,3.85010438 C1.14478478,3.02593934 3.68459651,1.82937774 7.66882549,1.82937774 C11.6529873,1.82937774 14.1927991,3.02593934 14.1927991,3.85010438 C14.1875637,4.67453533 11.647752,5.87109693 7.66882549,5.87109693 L7.66882549,5.87109693 Z" id="Fill-4"></path>
                    <path d="M9.05941269,3.82364708 C8.86093956,3.69588089 8.47949796,3.58965281 7.92649825,3.50994851 L7.92649825,2.78130897 C8.15202065,2.83455596 8.28626017,2.93553246 8.3400231,3.07911986 L9.21519765,3.01523676 C9.15619938,2.82910496 9.01645604,2.68026599 8.80167281,2.56865338 C8.58695669,2.45670839 8.29176399,2.3876402 7.92649825,2.36636799 L7.92649825,2.18043561 L7.42706011,2.18043561 L7.42706011,2.36636799 C7.02984537,2.3876402 6.71310722,2.4673445 6.47140897,2.60574679 C6.22964359,2.74388318 6.11164705,2.91426026 6.11164705,3.12146484 C6.11164705,3.32375023 6.21890443,3.4938614 6.4283852,3.6374488 C6.63786597,3.78103619 6.9708471,3.88201269 7.42182477,3.95114736 L7.42182477,4.73296742 C7.29832441,4.70105911 7.18556322,4.64781212 7.0836083,4.57874392 C6.98158626,4.50422473 6.91158035,4.41933533 6.87412753,4.32347745 L5.97190371,4.37672444 C6.04190962,4.62135481 6.20292992,4.81267172 6.44986352,4.94562301 C6.69686424,5.0785743 7.02434155,5.15834507 7.42182477,5.18506828 L7.42182477,5.52522415 L7.92126291,5.52522415 L7.92126291,5.17443218 C8.37224058,5.13700639 8.72119621,5.04666599 8.97370075,4.89244249 C9.22593681,4.73815252 9.35494099,4.54676914 9.35494099,4.32347745 C9.36017633,4.11600696 9.2581543,3.95114736 9.05941269,3.82364708 L9.05941269,3.82364708 Z M7.42182477,3.41934221 C7.27134227,3.38218232 7.15858107,3.33957143 7.0836083,3.28113934 C7.00836705,3.22277372 6.9708471,3.16407573 6.9708471,3.09500753 C6.9708471,3.02048834 7.01360239,2.95687115 7.09434746,2.89817315 C7.17482405,2.83974106 7.28208143,2.79713017 7.42182477,2.77067286 L7.42182477,3.41934221 Z M8.35076226,4.62653991 C8.2432364,4.69587401 8.10376154,4.73815252 7.92649825,4.7543061 L7.92649825,4.02566656 C8.13597902,4.05757487 8.28102483,4.10537086 8.37224058,4.16406885 C8.46345633,4.22250094 8.5064801,4.29702014 8.5064801,4.37672444 C8.51171544,4.47770094 8.45822099,4.55747172 8.35076226,4.62653991 L8.35076226,4.62653991 Z" id="Fill-5"></path>
                </g>
                <g id="Group-37">
                    <ellipse id="Oval-140" stroke="#FFFFFF" stroke-width="1.5" fill="#00ADEE" cx="5.53088477" cy="7.3037037" rx="5.53088477" ry="5.58518519"></ellipse>
                    <text id="+" font-family="Lato-Black, Lato" font-size="11.0617695" font-weight="700" letter-spacing="0.845000029" fill="#FFFFFF">
                        <tspan x="2.32592427" y="11">+</tspan>
                    </text>
                </g>
            </g>
        </g>
    </g>
</svg>