<?xml version="1.0" encoding="UTF-8" standalone="no"?>
<svg width="22px" height="20px" viewBox="0 0 22 20" version="1.1" xmlns="http://www.w3.org/2000/svg" xmlns:xlink="http://www.w3.org/1999/xlink">
    <!-- Generator: Sketch 39.1 (31720) - http://www.bohemiancoding.com/sketch -->
    <title>cash</title>
    <desc>Created with Sketch.</desc>
    <defs>
        <polygon id="path-1" points="0 0.0449187365 0 8.808275 21.9975793 8.808275 21.9975793 0.0449187365 1.54886025e-21 0.0449187365"></polygon>
    </defs>
    <g id="UI-Design" stroke="none" stroke-width="1" fill="none" fill-rule="evenodd">
        <g id="dashboard" transform="translate(-17.000000, -533.000000)">
            <g id="cash" transform="translate(17.000000, 533.000000)">
                <g id="Group-4" transform="translate(0.000000, 11.025000)">
                    <mask id="mask-2" fill="white">
                        <use xlink:href="#path-1"></use>
                    </mask>
                    <g id="Clip-2"></g>
                    <path d="M8.23394286,2.06966667 L11.8225714,3.180275 C11.8178286,3.203725 11.8086857,3.23178333 11.7995429,3.255 C11.7035429,3.52094167 11.5069143,3.67039167 11.1870286,3.72166667 C10.0076,3.91305833 8.05114286,3.79160833 8.0328,3.79160833 C7.73102857,3.77294167 7.47051429,4.006275 7.45222857,4.31433333 C7.43394286,4.62245 7.66251429,4.88833333 7.96405714,4.907 C8.05114286,4.91160833 10.0578286,5.03760833 11.3606857,4.82294167 C12.6544571,4.61305833 13.0248,3.451 12.9562286,2.71839167 C12.9332571,2.48960833 12.7823429,2.29845 12.5676571,2.23305833 L8.54931429,0.991608333 C6.56542857,0.380275 4.38925714,1.50955 4.29777143,1.556275 C4.28862857,1.56105833 4.27497143,1.56560833 4.26582857,1.57494167 L0.265828571,4.04366667 C0.00537142857,4.20221667 -0.0770285714,4.54766667 0.0783428571,4.81360833 C0.183485714,4.98633333 0.361828571,5.08433333 0.549314286,5.08433333 C0.645314286,5.08433333 0.741314286,5.056275 0.8328,5.005 L4.81451429,2.555 C4.98817143,2.46160833 6.73908571,1.60778333 8.23394286,2.06966667 L8.23394286,2.06966667 Z" id="Fill-1" fill="#00ADEE" mask="url(#mask-2)"></path>
                    <path d="M21.9298857,1.13178333 C21.6145143,0.543666667 20.6314857,-0.394216667 19.1413143,0.277725 C17.7332571,0.916883333 14.7573714,2.377725 14.7252,2.39160833 C14.4511429,2.527 14.3368571,2.858275 14.4692,3.13833333 C14.6017714,3.41839167 14.9310286,3.53505833 15.2006857,3.399725 C15.2328,3.38555 18.1904,1.929725 19.5848,1.299725 C19.9823429,1.11766667 20.3160571,1.11766667 20.6042286,1.299725 C20.6133714,1.304275 20.6178286,1.30905833 20.6270286,1.31360833 L13.1709714,6.89033333 C12.6406286,7.28705833 11.9687429,7.45021667 11.3241143,7.34766667 L4.67274286,6.26511667 C4.5172,6.24160833 4.35737143,6.28355 4.23394286,6.38633333 L2.55154286,7.81888333 C2.31851429,8.01511667 2.2864,8.36966667 2.48302857,8.60778333 C2.59262857,8.73833333 2.74822857,8.808275 2.90354286,8.808275 C3.02702857,8.808275 3.15045714,8.76639167 3.2556,8.677725 L4.74577143,7.408275 L11.1549143,8.453725 C12.0874857,8.60778333 13.0613714,8.36511667 13.8248,7.79566667 L21.7790286,1.85021667 C21.994,1.682275 22.0625143,1.379 21.9298857,1.13178333 L21.9298857,1.13178333 Z" id="Fill-3" fill="#00ADEE" mask="url(#mask-2)"></path>
                </g>
                <path d="M11.7676571,11.5126083 C12.6225714,11.5126083 13.4225714,11.1719417 14.0303429,10.556 C15.2783429,9.282 15.2783429,7.21460833 14.0303429,5.94060833 C13.4270286,5.324725 12.6225714,4.98405833 11.7676571,4.98405833 C10.9127429,4.98405833 10.1127429,5.324725 9.50468571,5.94060833 C8.25668571,7.21460833 8.25668571,9.282 9.50468571,10.556 C10.1127429,11.1719417 10.9127429,11.5126083 11.7676571,11.5126083 L11.7676571,11.5126083 Z M10.2819429,6.73405833 C10.6797143,6.328 11.2053714,6.104 11.7676571,6.104 C12.3298857,6.104 12.8556,6.328 13.2533714,6.73405833 C14.0716571,7.56939167 14.0716571,8.932 13.2533714,9.76739167 C12.8556,10.17345 12.3298857,10.39745 11.7676571,10.39745 C11.2053714,10.39745 10.6797143,10.17345 10.2819429,9.76739167 C9.4636,8.932 9.4636,7.56939167 10.2819429,6.73405833 L10.2819429,6.73405833 Z" id="Fill-5" fill="#00ADEE"></path>
                <path d="M15.5207429,5.133275 C16.1881714,5.133275 16.8145143,4.86739167 17.2852571,4.38660833 C18.2589143,3.39266667 18.2589143,1.778 17.2852571,0.784058333 C16.8145143,0.303275 16.1881714,0.0373333333 15.5207429,0.0373333333 C14.8533714,0.0373333333 14.2270286,0.303275 13.7562286,0.784058333 C12.7823429,1.778 12.7823429,3.39266667 13.7562286,4.38660833 C14.2270286,4.87194167 14.8578286,5.133275 15.5207429,5.133275 L15.5207429,5.133275 Z M14.5332571,1.57721667 C14.7984571,1.30678333 15.1504571,1.157275 15.5252,1.157275 C15.9002286,1.157275 16.2522286,1.30678333 16.5172,1.57721667 C17.0613714,2.13278333 17.0613714,3.04266667 16.5172,3.59794167 C16.2522286,3.86866667 15.9002286,4.01788333 15.5252,4.01788333 C15.1504571,4.01788333 14.7984571,3.86866667 14.5332571,3.59794167 C13.9892571,3.03805833 13.9892571,2.13278333 14.5332571,1.57721667 L14.5332571,1.57721667 Z" id="Fill-6" fill="#00ADEE"></path>
            </g>
        </g>
    </g>
</svg>