<?xml version="1.0" encoding="UTF-8" standalone="no"?>
<svg width="20px" height="20px" viewBox="0 0 20 20" version="1.1" xmlns="http://www.w3.org/2000/svg" xmlns:xlink="http://www.w3.org/1999/xlink">
    <!-- Generator: Sketch 39.1 (31720) - http://www.bohemiancoding.com/sketch -->
    <title>Group 8</title>
    <desc>Created with Sketch.</desc>
    <defs></defs>
    <g id="UI-Design" stroke="none" stroke-width="1" fill="none" fill-rule="evenodd">
        <g id="mobile-dashboar-sidemenu-open" transform="translate(-73.000000, -527.000000)" fill="#00ADEE">
            <g id="side-menu" transform="translate(55.000000, -10.000000)">
                <g id="Group-7">
                    <g id="settings-(3)" transform="translate(18.000000, 537.000000)">
                        <g id="Group-8">
                            <path d="M18.9743603,7.88130208 L17.5707572,7.64369792 C17.4245431,7.17291667 17.2364491,6.71880208 17.0067885,6.28546875 L17.8339426,5.13125 C18.184752,4.63953125 18.1304961,3.96875 17.7003133,3.54375 L16.4554047,2.30208333 C16.2214621,2.06875 15.9122193,1.93953125 15.582141,1.93953125 C15.3232898,1.93953125 15.0767102,2.01869792 14.8678329,2.16885417 L13.7065274,2.99380208 C13.2553525,2.75619792 12.783342,2.56046875 12.2945692,2.41458333 L12.0606266,1.03135417 C11.9602611,0.435416667 11.446423,0.00208333333 10.8408355,0.00208333333 L9.08208877,0.00208333333 C8.47624021,0.00208333333 7.96240209,0.435416667 7.86208877,1.03135417 L7.61994778,2.44796875 C7.15201044,2.59385417 6.69650131,2.78546875 6.26224543,3.01885417 L5.11342037,2.19364583 C4.90454308,2.04369792 4.65383812,1.96458333 4.39477807,1.96458333 C4.06475196,1.96458333 3.75143603,2.09375 3.52172324,2.32713542 L2.27258486,3.56875 C1.84642298,3.99380208 1.78788512,4.66458333 2.13895561,5.15630208 L2.97446475,6.32713542 C2.7445953,6.76458333 2.56078329,7.21869792 2.41879896,7.6896875 L1.03195822,7.9228125 C0.434464752,8.02291667 0,8.53541667 0,9.13963542 L0,10.8938021 C0,11.4978646 0.434464752,12.0103646 1.03195822,12.1104167 L2.45227154,12.3521354 C2.59853786,12.8186458 2.79065274,13.2729687 3.02464752,13.7063021 L2.20156658,14.8478646 C1.85070496,15.3395833 1.90496084,16.0103646 2.33519582,16.4354167 L3.58010444,17.6770312 C3.814047,17.9104167 4.12328982,18.0395833 4.45331593,18.0395833 C4.7121671,18.0395833 4.95879896,17.9604687 5.16767624,17.8105208 L6.34156658,16.9771875 C6.76344648,17.1979167 7.20626632,17.3771875 7.66156658,17.51875 L7.89550914,18.9186979 C7.99587467,19.5146354 8.50971279,19.9479687 9.11535248,19.9479687 L10.878329,19.9479687 C11.4841775,19.9479687 11.9980157,19.5146354 12.0981723,18.9186979 L12.336188,17.51875 C12.8084073,17.3729167 13.2637076,17.1855208 13.6981723,16.95625 L14.8553525,17.7811979 C15.0642298,17.9311458 15.3149347,18.0105208 15.5737859,18.0105208 C15.9038642,18.0105208 16.2130548,17.8813021 16.4470496,17.6479687 L17.6919582,16.4063021 C18.1180679,15.9813021 18.1763969,15.3105208 17.8255352,14.81875 L16.9984334,13.6603125 C17.2283029,13.2229167 17.42047,12.7688021 17.5624021,12.3020833 L18.9660052,12.06875 C19.5634987,11.9688542 19.9979634,11.4563542 19.9979634,10.8520833 L19.9979634,9.09796875 C20.0063185,8.49369792 19.5718538,7.98119792 18.9743603,7.88130208 L18.9743603,7.88130208 Z M18.878329,10.8520833 C18.878329,10.9061979 18.8407833,10.9519792 18.7865274,10.9603125 L17.0318538,11.2520833 C16.8105483,11.2895312 16.6349347,11.4520833 16.5806789,11.6646875 C16.4219321,12.2770833 16.1796345,12.8646354 15.8538903,13.4104687 C15.7410444,13.6021354 15.7494517,13.8395833 15.8787467,14.0228646 L16.910705,15.4728646 C16.9398433,15.5145833 16.9357702,15.5770312 16.8982768,15.6146875 L15.6533681,16.8563542 C15.6239687,16.8854167 15.5948303,16.8894792 15.5737859,16.8894792 C15.5489295,16.8894792 15.5278851,16.8811458 15.5111749,16.86875 L14.061671,15.8394792 C13.8819843,15.7105208 13.6396345,15.7021354 13.4475196,15.8146875 C12.9002089,16.1395833 12.3113316,16.38125 11.6971279,16.5395833 C11.4798956,16.5936979 11.3169191,16.7729167 11.2834465,16.9895833 L10.9868407,18.7396875 C10.9784856,18.7938021 10.9325849,18.83125 10.878329,18.83125 L9.11963446,18.83125 C9.06537859,18.83125 9.01926893,18.7938021 9.01091384,18.7396875 L8.71859008,16.9895833 C8.68083551,16.7688542 8.51806789,16.5936979 8.30490862,16.5395833 C7.70767624,16.3853646 7.13101828,16.1479167 6.59206266,15.8394792 C6.50438642,15.7896354 6.40422977,15.7646354 6.30814621,15.7646354 C6.19535248,15.7646354 6.07822454,15.7979687 5.98219321,15.8688021 L4.52005222,16.9061979 C4.49921671,16.9188021 4.47843342,16.9271354 4.45738903,16.9271354 C4.44067885,16.9271354 4.40720627,16.9228646 4.37806789,16.89375 L3.13315927,15.6520833 C3.09561358,15.6146875 3.09133159,15.5563021 3.12073107,15.5105208 L4.14835509,14.0729167 C4.27791123,13.8896354 4.28605744,13.6479167 4.17347258,13.45625 C3.84751958,12.9146875 3.59681462,12.3271354 3.4381201,11.7145312 C3.37958225,11.5021354 3.20412533,11.3395833 2.98689295,11.3021354 L1.21979112,11.0020312 C1.16553525,10.9936979 1.12804178,10.9479167 1.12804178,10.8938021 L1.12804178,9.13963542 C1.12804178,9.0853125 1.16553525,9.03958333 1.21979112,9.03119792 L2.96182768,8.7396875 C3.18334204,8.70203125 3.36281984,8.5396875 3.4172846,8.32302083 C3.57169713,7.71041667 3.80997389,7.11880208 4.13164491,6.57291667 C4.24443864,6.38125 4.23180157,6.14385417 4.10229765,5.96458333 L3.06219321,4.50625 C3.03279373,4.46458333 3.03707572,4.40208333 3.07462141,4.3646875 L4.31953003,3.12302083 C4.34887728,3.09369792 4.37806789,3.08963542 4.39885117,3.08963542 C4.42396867,3.08963542 4.44496084,3.09796875 4.46167102,3.11041667 L5.90281984,4.13536458 C6.08663185,4.26458333 6.3289295,4.27291667 6.52109661,4.16041667 C7.06428198,3.83552083 7.65321149,3.58546875 8.26736292,3.4271875 C8.48031332,3.36880208 8.64334204,3.19380208 8.68083551,2.97713542 L8.98172324,1.21463542 C8.99007833,1.1603125 9.03597911,1.12291667 9.09023499,1.12291667 L10.8491906,1.12291667 C10.9034465,1.12291667 10.9493473,1.1603125 10.9577023,1.21463542 L11.2501828,2.95213542 C11.2877285,3.17286458 11.450705,3.35208333 11.6679373,3.40619792 C12.2986945,3.56447917 12.9002089,3.81046875 13.4601567,4.13963542 C13.6522715,4.2521875 13.8903394,4.24380208 14.0741514,4.11463542 L15.5154569,3.08130208 C15.5362924,3.06869792 15.5572846,3.06036458 15.5780679,3.06036458 C15.5948303,3.06036458 15.6282507,3.06463542 15.6574413,3.09369792 L16.9023499,4.33536458 C16.9398433,4.37302083 16.9441253,4.43119792 16.9149869,4.4771875 L15.8830287,5.92291667 C15.7535248,6.10213542 15.7451697,6.34385417 15.8579634,6.53546875 C16.1839164,7.08135417 16.4260574,7.66869792 16.5849608,8.28130208 C16.6392167,8.49796875 16.8186945,8.6603125 17.0359269,8.69369792 L18.7906005,8.98953125 C18.8448564,8.99786458 18.882611,9.04385417 18.882611,9.09796875 L18.882611,10.8520833 L18.878329,10.8520833 Z" id="Fill-1"></path>
                            <path d="M10.0010444,5.66880208 C7.61994778,5.66880208 5.68558747,7.59791667 5.68558747,9.97296875 C5.68558747,12.3478646 7.61994778,14.2769792 10.0010444,14.2769792 C12.3822977,14.2769792 14.3164491,12.3478646 14.3164491,9.97296875 C14.3164491,7.59791667 12.3822977,5.66880208 10.0010444,5.66880208 L10.0010444,5.66880208 Z M10.0010444,13.1520833 C8.24229765,13.1520833 6.81357702,11.7271354 6.81357702,9.97296875 C6.81357702,8.21885417 8.24229765,6.79364583 10.0010444,6.79364583 C11.7597389,6.79364583 13.1884595,8.21885417 13.1884595,9.97296875 C13.1884595,11.7271354 11.7597389,13.1520833 10.0010444,13.1520833 L10.0010444,13.1520833 Z" id="Fill-3"></path>
                        </g>
                    </g>
                </g>
            </g>
        </g>
    </g>
</svg>