<?xml version="1.0" encoding="UTF-8" standalone="no"?>
<svg width="18px" height="11px" viewBox="0 0 18 11" version="1.1" xmlns="http://www.w3.org/2000/svg" xmlns:xlink="http://www.w3.org/1999/xlink">
    <!-- Generator: Sketch 39.1 (31720) - http://www.bohemiancoding.com/sketch -->
    <title>Path</title>
    <desc>Created with Sketch.</desc>
    <defs></defs>
    <g id="UI-Design" stroke="none" stroke-width="1" fill="none" fill-rule="evenodd">
        <g id="emptystate-search-results" transform="translate(-74.000000, -367.000000)" fill="#00ADEE">
            <path d="M87.9425417,375.590792 C87.69475,375.343 87.2925833,375.343 87.0455833,375.590792 L83.7087083,379.431167 L83.7087083,364 L82.4404583,364 L82.4404583,379.453333 L79.085375,375.590792 C78.838375,375.343 78.4330417,375.343 78.18525,375.590792 C77.93825,375.840958 77.93825,376.246292 78.18525,376.494083 L82.5829583,381.552833 C82.7159583,381.685833 82.8925,381.744417 83.0650833,381.735708 C83.2384583,381.744417 83.4118333,381.685833 83.5448333,381.552833 L87.9425417,376.494083 C88.1927083,376.246292 88.1927083,375.840958 87.9425417,375.590792 L87.9425417,375.590792 Z" id="Path" transform="translate(83.065083, 372.868276) rotate(-90.000000) translate(-83.065083, -372.868276) "></path>
        </g>
    </g>
</svg>