<?xml version="1.0" encoding="UTF-8" standalone="no"?>
<svg width="20px" height="18px" viewBox="0 0 20 18" version="1.1" xmlns="http://www.w3.org/2000/svg" xmlns:xlink="http://www.w3.org/1999/xlink">
    <!-- Generator: Sketch 39.1 (31720) - http://www.bohemiancoding.com/sketch -->
    <title>message</title>
    <desc>Created with Sketch.</desc>
    <defs>
        <polygon id="path-1" points="9.98278971 0.0121034483 0.00631578947 0.0121034483 0.00631578947 18 19.9592636 18 19.9592636 0.0121034483 9.98278971 0.0121034483"></polygon>
    </defs>
    <g id="UI-Design" stroke="none" stroke-width="1" fill="none" fill-rule="evenodd">
        <g id="mobile-dashboar-sidemenu-open" transform="translate(-76.000000, -419.000000)">
            <g id="side-menu" transform="translate(55.000000, -10.000000)">
                <g id="Group-7">
                    <g id="message" transform="translate(21.000000, 429.000000)">
                        <g id="Group-3">
                            <mask id="mask-2" fill="white">
                                <use xlink:href="#path-1"></use>
                            </mask>
                            <g id="Clip-2"></g>
                            <path d="M19.3281053,0.0121034483 L0.631578947,0.0121034483 C0.282947368,0.0121034483 0,0.290068966 0,0.632793103 L0,13.365 C0,13.7080345 0.282947368,13.9856897 0.631578947,13.9856897 L5.30473684,13.9856897 C5.65336842,13.9856897 5.93631579,13.7080345 5.93631579,13.365 C5.93631579,13.0222759 5.65336842,12.7443103 5.30473684,12.7443103 L1.26315789,12.7443103 L1.26315789,1.25348276 L18.6965263,1.25348276 L18.6965263,12.7443103 L11.1965263,12.7443103 C11.0678947,12.7443103 10.9424211,12.7831034 10.8367368,12.855 L4.94494737,16.8693103 C4.65831579,17.0645172 4.58673684,17.4512069 4.78536842,17.7328966 C4.90831579,17.9065862 5.10484211,18 5.30505263,18 C5.42926316,18 5.55473684,17.964 5.66442105,17.8892069 L11.3938947,13.9861034 L19.3276842,13.9861034 C19.6768421,13.9861034 19.9592632,13.7080345 19.9592632,13.3654138 L19.9592632,0.632793103 C19.9596842,0.290068966 19.6768421,0.0121034483 19.3281053,0.0121034483 L19.3281053,0.0121034483 Z" id="Fill-1" fill="#00ADEE" mask="url(#mask-2)"></path>
                        </g>
                        <path d="M12.3170526,4.94606897 C12.6656842,4.94606897 12.9486316,4.66810345 12.9486316,4.32537931 C12.9486316,3.98234483 12.6656842,3.70468966 12.3170526,3.70468966 L7.64263158,3.70468966 C7.294,3.70468966 7.01105263,3.98234483 7.01105263,4.32537931 C7.01105263,4.66810345 7.294,4.94606897 7.64263158,4.94606897 L12.3170526,4.94606897 Z" id="Fill-4" fill="#00ADEE"></path>
                        <path d="M4.67431579,6.99889655 C4.67431579,7.34193103 4.95726316,7.61958621 5.30589474,7.61958621 L14.6542105,7.61958621 C15.0028421,7.61958621 15.2857895,7.34193103 15.2857895,6.99889655 C15.2857895,6.65617241 15.0028421,6.3782069 14.6542105,6.3782069 L5.30589474,6.3782069 C4.95726316,6.3782069 4.67431579,6.65617241 4.67431579,6.99889655 L4.67431579,6.99889655 Z" id="Fill-5" fill="#00ADEE"></path>
                        <path d="M5.30589474,10.2935172 L14.6542105,10.2935172 C15.0028421,10.2935172 15.2857895,10.0154483 15.2857895,9.67282759 C15.2857895,9.32968966 15.0028421,9.05213793 14.6542105,9.05213793 L5.30589474,9.05213793 C4.95726316,9.05213793 4.67431579,9.32968966 4.67431579,9.67282759 C4.67431579,10.0154483 4.95726316,10.2935172 5.30589474,10.2935172 L5.30589474,10.2935172 Z" id="Fill-6" fill="#00ADEE"></path>
                    </g>
                </g>
            </g>
        </g>
    </g>
</svg>